<?xml version="1.0" encoding="UTF-8" standalone="no"?>
<svg
   xmlns:dc="http://purl.org/dc/elements/1.1/"
   xmlns:cc="http://creativecommons.org/ns#"
   xmlns:rdf="http://www.w3.org/1999/02/22-rdf-syntax-ns#"
   xmlns:svg="http://www.w3.org/2000/svg"
   xmlns="http://www.w3.org/2000/svg"
   xmlns:sodipodi="http://sodipodi.sourceforge.net/DTD/sodipodi-0.dtd"
   xmlns:inkscape="http://www.inkscape.org/namespaces/inkscape"
   version="1.1"
   width="128"
   height="128"
   id="svg52"
   viewBox="0 0 128 128"
   sodipodi:docname="desenhando2.svg"
   inkscape:version="1.0.2 (e86c870879, 2021-01-15, custom)">
  <metadata
     id="metadata58">
    <rdf:RDF>
      <cc:Work
         rdf:about="">
        <dc:format>image/svg+xml</dc:format>
        <dc:type
           rdf:resource="http://purl.org/dc/dcmitype/StillImage" />
        <dc:title></dc:title>
      </cc:Work>
    </rdf:RDF>
  </metadata>
  <defs
     id="defs56" />
  <sodipodi:namedview
     pagecolor="#ffffff"
     bordercolor="#666666"
     borderopacity="1"
     objecttolerance="10"
     gridtolerance="10"
     guidetolerance="10"
     inkscape:pageopacity="0"
     inkscape:pageshadow="2"
     inkscape:window-width="1440"
     inkscape:window-height="824"
     id="namedview54"
     showgrid="false"
     inkscape:zoom="1.1077223"
     inkscape:cx="145.79958"
     inkscape:cy="119.96575"
     inkscape:window-x="0"
     inkscape:window-y="0"
     inkscape:window-maximized="1"
     inkscape:current-layer="svg52"
     inkscape:document-rotation="0" />
  <g
     id="g10"
     transform="matrix(0.24190476,0,0,0.24190485,-0.22186305,-0.30240035)">
    <path
       d="M 491.53054,529.14922 H 175.57741 v -0.01 c -9.34325,0.83009 -19.31335,1.24452 -29.90898,1.24452 -31.05491,0 -56.332272,-3.90346 -75.831983,-11.79868 C 50.233628,510.68973 34.757673,498.09249 23.305583,480.79351 15.051855,468.46234 9.2739877,452.67162 5.8694114,433.42109 2.5679419,414.25913 0.91715329,381.79021 0.91715329,336.01434 V 120.53125 H 111.10562 v 250.87942 c 0,37.88028 2.78561,61.38928 8.35673,70.43813 5.46844,8.95984 15.26985,13.48408 29.40423,13.48408 12.08744,0 20.94989,-3.34046 26.71083,-9.9675 V 1.250085 H 319.26656 V 422.44619 h 172.26398 z"
       style="fill:#ffffff;fill-rule:evenodd;stroke-width:1.0001"
       id="path30-3" />
    <path
       d="m 376.59249,83.49262 v 110.42265 h 110.49015 q 42.96837,0 42.96837,-42.94213 V 83.49262 q 0,-42.942128 -42.96837,-42.942128 h -67.52177 q -42.96838,0 -42.96838,42.942128 z"
       style="fill:#ffffff;fill-rule:evenodd;stroke-width:0.934267"
       id="path32-5" />
  </g>
</svg>
