<?xml version="1.0" encoding="UTF-8" standalone="no"?>
<svg
   xmlns:dc="http://purl.org/dc/elements/1.1/"
   xmlns:cc="http://creativecommons.org/ns#"
   xmlns:rdf="http://www.w3.org/1999/02/22-rdf-syntax-ns#"
   xmlns:svg="http://www.w3.org/2000/svg"
   xmlns="http://www.w3.org/2000/svg"
   xmlns:sodipodi="http://sodipodi.sourceforge.net/DTD/sodipodi-0.dtd"
   xmlns:inkscape="http://www.inkscape.org/namespaces/inkscape"
   width="16"
   height="16"
   id="svg2"
   version="1.1"
   inkscape:version="1.0.2 (e86c870879, 2021-01-15, custom)"
   sodipodi:docname="close_prelight.svg">
  <defs
     id="defs4" />
  <sodipodi:namedview
     id="base"
     pagecolor="#ffffff"
     bordercolor="#666666"
     borderopacity="1.0"
     inkscape:pageopacity="0.0"
     inkscape:pageshadow="2"
     inkscape:zoom="15.839192"
     inkscape:cx="-3.5877243"
     inkscape:cy="8.2578826"
     inkscape:document-units="px"
     inkscape:current-layer="g4144"
     showgrid="true"
     fit-margin-top="0"
     fit-margin-left="0"
     fit-margin-right="0"
     fit-margin-bottom="0"
     inkscape:window-width="1440"
     inkscape:window-height="824"
     inkscape:window-x="0"
     inkscape:window-y="0"
     inkscape:window-maximized="1"
     inkscape:document-rotation="0" />
  <metadata
     id="metadata7">
    <rdf:RDF>
      <cc:Work
         rdf:about="">
        <dc:format>image/svg+xml</dc:format>
        <dc:type
           rdf:resource="http://purl.org/dc/dcmitype/StillImage" />
        <dc:title />
      </cc:Work>
    </rdf:RDF>
  </metadata>
  <g
     inkscape:label="Layer 1"
     inkscape:groupmode="layer"
     id="layer1"
     transform="translate(-671.14288,-648.57648)">
    <g
       transform="matrix(0.1265625,0,0,-0.1265625,672.07092,663.09636)"
       inkscape:label="ink_ext_XXXXXX"
       id="g4090">
      <g
         transform="scale(0.1)"
         id="g4092">
        <path
           id="path4094"
           style="fill:#b40000;fill-opacity:1;fill-rule:evenodd;stroke:none"
           d="m 558.77708,-37.935271 c 305.45607,0 553.08142,247.625871 553.08142,553.085831 0,305.46125 -247.62535,553.08674 -553.08142,553.08674 -305.46513,0 -553.0913269,-247.62549 -553.0913269,-553.08674 0,-305.45996 247.6261969,-553.085831 553.0913269,-553.085831"
           inkscape:connector-curvature="0" />
        <g
           id="g4144"
           transform="matrix(1.0680345,0,0,1.0680345,0.41786301,-41.900484)">
          <path
             inkscape:connector-curvature="0"
             d="m 522.79173,40.6992 c 265.56911,0 480.85987,215.29542 480.85987,480.86946 0,265.57526 -215.29076,480.86604 -480.85987,480.86604 -265.57896,0 -480.86983,-215.29078 -480.86983,-480.86604 0,-265.57404 215.29087,-480.86946 480.86983,-480.86946"
             style="fill:#b40000;fill-opacity:1;fill-rule:evenodd;stroke:none"
             id="path4096" />
          <path
             id="px"
             d="m 295.40979,749.37105 c -31.49043,-31.54745 -31.49043,-82.34582 0,-113.90206 L 409.09841,521.56694 295.40979,407.66488 c -31.49055,-31.55687 -31.49055,-82.35373 0,-113.90203 31.4903,-31.55682 82.19667,-31.55682 113.68862,0 L 522.78679,407.66488 636.47528,293.76285 c 31.49068,-31.55682 82.1968,-31.55682 113.68862,0 31.4903,31.54736 31.4903,82.3461 0,113.90203 L 636.47528,521.56694 750.1639,635.46899 c 31.4903,31.55682 31.4903,82.35366 0,113.90206 -31.4903,31.55683 -82.19692,31.55683 -113.68862,0 L 522.78679,635.46899 409.09841,749.37105 c -31.49081,31.55683 -82.19693,31.55683 -113.68862,0 z"
             style="opacity:0.5;fill:#161613;stroke-width:84.4589"
             inkscape:export-xdpi="283.94"
             inkscape:export-ydpi="283.94" />
        </g>
      </g>
    </g>
  </g>
</svg>
