<?xml version="1.0" encoding="UTF-8" standalone="no"?>
<svg
   xmlns:dc="http://purl.org/dc/elements/1.1/"
   xmlns:cc="http://creativecommons.org/ns#"
   xmlns:rdf="http://www.w3.org/1999/02/22-rdf-syntax-ns#"
   xmlns:svg="http://www.w3.org/2000/svg"
   xmlns="http://www.w3.org/2000/svg"
   xmlns:sodipodi="http://sodipodi.sourceforge.net/DTD/sodipodi-0.dtd"
   xmlns:inkscape="http://www.inkscape.org/namespaces/inkscape"
   xml:space="preserve"
   width="8.26772in"
   height="11.6929in"
   version="1.1"
   style="shape-rendering:geometricPrecision; text-rendering:geometricPrecision; image-rendering:optimizeQuality; fill-rule:evenodd; clip-rule:evenodd"
   viewBox="0 0 8267.72 11692.91"
   id="svg30"
   sodipodi:docname="disk.svg"
   inkscape:version="1.0.2 (e86c870879, 2021-01-15, custom)"><metadata
   id="metadata34"><rdf:RDF><cc:Work
       rdf:about=""><dc:format>image/svg+xml</dc:format><dc:type
         rdf:resource="http://purl.org/dc/dcmitype/StillImage" /></cc:Work></rdf:RDF></metadata><sodipodi:namedview
   pagecolor="#ffffff"
   bordercolor="#666666"
   borderopacity="1"
   objecttolerance="10"
   gridtolerance="10"
   guidetolerance="10"
   inkscape:pageopacity="0"
   inkscape:pageshadow="2"
   inkscape:window-width="1440"
   inkscape:window-height="824"
   id="namedview32"
   showgrid="false"
   inkscape:zoom="0.27661017"
   inkscape:cx="3546.7539"
   inkscape:cy="-58.515319"
   inkscape:window-x="0"
   inkscape:window-y="0"
   inkscape:window-maximized="1"
   inkscape:current-layer="svg30"
   inkscape:document-rotation="0" />
 <defs
   id="defs4">
  <style
   type="text/css"
   id="style2">
   <![CDATA[
    .str1 {stroke:black;stroke-width:55.56;stroke-miterlimit:2.61313}
    .str3 {stroke:#DA4453;stroke-width:55.56;stroke-miterlimit:2.61313}
    .str2 {stroke:#F67400;stroke-width:55.56;stroke-miterlimit:2.61313}
    .str0 {stroke:black;stroke-width:6.94;stroke-linecap:round;stroke-linejoin:round;stroke-miterlimit:2.61313}
    .fil0 {fill:black;fill-rule:nonzero}
    .fil1 {fill:black;fill-rule:nonzero}
    .fil3 {fill:#DA4453;fill-rule:nonzero}
    .fil2 {fill:#F67400;fill-rule:nonzero}
   ]]>
  </style>
 
  
  
  
  
  
 </defs>
 <g
   id="disk-quota">
   <path
   class="fil0 str0"
   d="m 994.22,3827.36 h 2911.8 l 580.74,-690.82 c 17.07,-20.24 42.23,-31.88 68.72,-31.77 h 2349.53 c 354.02,0.41 640.91,287.3 641.32,641.32 v 1653.67 c -57.31,-12.2 -117.03,-22.59 -178.8,-31.04 V 3746.1 c -0.41,-255.28 -207.25,-462.11 -462.52,-462.52 H 4599.07 l -580.73,690.82 c -17.07,20.24 -42.22,31.88 -68.71,31.77 H 994.24 c -255.27,0.41 -462.11,207.25 -462.52,462.52 v 3506.57 c 0.41,255.27 207.24,462.11 462.52,462.52 h 5350.27 c 185.63,44.29 398.95,69.26 627.61,69.26 108.57,0 213.65,-5.67 313.98,-16.31 -106.54,78.93 -238.35,125.69 -381.08,125.86 H 994.24 C 640.22,8616.18 353.33,8329.29 352.92,7975.27 V 4468.7 c 0.41,-354.02 287.3,-640.91 641.32,-641.32 z"
   id="path7"
   style="fill:#c3c7d1;fill-opacity:1;stroke:#c3c7d1;stroke-opacity:1" />
   <path
   class="fil1 str1"
   d="m 6972.1,5342.56 c -736.64,0 -1314.3,258.81 -1318.43,589.77 -0.06,1.18 -0.09,2.37 -0.09,3.56 v 658.98 0.28 0.13 658.85 0.28 0.13 659.14 c 0,332.67 579.23,593.33 1318.52,593.33 739.3,0 1318.53,-260.67 1318.53,-593.33 v -1977.8 c 0,-1.19 -0.03,-2.38 -0.1,-3.56 -4.13,-330.95 -581.78,-589.77 -1318.43,-589.77 z m -1186.67,856.16 c 211.86,197.38 658.36,330.51 1186.67,330.51 528.31,0 974.81,-133.13 1186.67,-330.51 v 396.44 c 0,218.22 -487.32,461.49 -1186.67,461.49 -699.34,0 -1186.67,-243.27 -1186.67,-461.49 z m 2373.34,659.26 v 396.44 c 0,218.21 -487.32,461.48 -1186.67,461.48 -699.34,0 -1186.67,-243.27 -1186.67,-461.48 v -396.43 c 211.86,197.37 658.36,330.51 1186.67,330.51 528.31,0 974.82,-133.13 1186.68,-330.52 z m 0,659.26 v 396.45 c 0,218.21 -487.32,461.48 -1186.67,461.48 -699.34,0 -1186.67,-243.27 -1186.67,-461.48 v -396.44 c 211.86,197.38 658.36,330.51 1186.67,330.51 528.31,0 974.82,-133.13 1186.68,-330.52 z M 6972.1,6397.38 c -699.34,0 -1186.67,-243.26 -1186.67,-461.49 0,-218.21 487.33,-461.48 1186.67,-461.48 699.35,0 1186.67,243.27 1186.67,461.48 0,218.22 -487.32,461.49 -1186.67,461.49 z"
   id="path9"
   style="stroke:#c3c7d1;stroke-opacity:1;fill:#c3c7d1;fill-opacity:1" />
  </g><g
   id="disk-quota-low">
   <path
   class="fil0 str0"
   d="m 22760.96,3827.35 h 2911.8 l 580.74,-690.82 c 17.07,-20.24 42.23,-31.88 68.72,-31.77 h 2349.53 c 354.02,0.41 640.91,287.3 641.32,641.32 v 1653.67 c -57.31,-12.2 -117.03,-22.59 -178.8,-31.04 V 3746.09 c -0.41,-255.28 -207.24,-462.11 -462.52,-462.52 h -2305.94 l -580.73,690.82 c -17.07,20.24 -42.22,31.88 -68.71,31.77 h -2955.39 c -255.27,0.41 -462.11,207.25 -462.52,462.52 v 3506.57 c 0.41,255.27 207.24,462.11 462.52,462.52 h 5350.27 c 185.63,44.29 398.95,69.26 627.62,69.26 108.56,0 213.64,-5.67 313.98,-16.31 -106.54,78.93 -238.35,125.69 -381.08,125.86 h -5910.78 c -354.02,-0.41 -640.91,-287.3 -641.32,-641.32 V 4468.69 c 0.41,-354.02 287.3,-640.91 641.32,-641.32 z"
   id="path12"
   style="fill:#c3c7d1;fill-opacity:1;stroke:#c3c7d1;stroke-opacity:1" />
   <path
   class="fil2 str2"
   d="m 28738.84,5342.55 c -736.65,0 -1314.3,258.81 -1318.43,589.77 -0.07,1.18 -0.1,2.37 -0.1,3.56 v 658.98 0.28 0.13 658.85 0.28 0.13 659.14 c 0,332.67 579.23,593.33 1318.53,593.33 739.3,0 1318.52,-260.67 1318.52,-593.33 v -1977.8 c 0,-1.19 -0.03,-2.38 -0.09,-3.56 -4.13,-330.95 -581.79,-589.77 -1318.43,-589.77 z m -882.85,2871.81 c -49.99,-25.59 -100.53,-53.57 -151.59,-84.11 42.55,29.65 93.35,57.96 151.59,84.11 z m -303.83,-2015.65 c 211.86,197.38 658.36,330.51 1186.67,330.51 528.31,0 974.81,-133.13 1186.67,-330.51 v 396.44 c 0,218.22 -487.33,461.49 -1186.67,461.49 -699.35,0 -1186.67,-243.27 -1186.67,-461.49 z m 1186.67,198.66 c -699.35,0 -1186.67,-243.26 -1186.67,-461.49 0,-218.21 487.33,-461.48 1186.67,-461.48 699.35,0 1186.67,243.27 1186.67,461.48 0,218.22 -487.33,461.49 -1186.67,461.49 z"
   id="path14" />
  </g><g
   id="disk-quota-high">
   <path
   class="fil0 str0"
   d="m 32541.51,3827.35 h 2911.8 l 580.74,-690.82 c 17.07,-20.24 42.23,-31.88 68.72,-31.77 h 2349.53 c 354.02,0.41 640.91,287.3 641.32,641.32 v 1653.67 c -57.31,-12.2 -117.03,-22.59 -178.8,-31.04 V 3746.09 c -0.41,-255.28 -207.24,-462.11 -462.52,-462.52 h -2305.94 l -580.73,690.82 c -17.07,20.24 -42.22,31.88 -68.71,31.77 h -2955.39 c -255.27,0.41 -462.11,207.25 -462.52,462.52 v 3506.57 c 0.41,255.27 207.24,462.11 462.52,462.52 h 5350.27 c 185.63,44.29 398.95,69.26 627.62,69.26 108.56,0 213.64,-5.67 313.98,-16.31 -106.54,78.93 -238.35,125.69 -381.08,125.86 h -5910.78 c -354.02,-0.41 -640.91,-287.3 -641.32,-641.32 V 4468.69 c 0.41,-354.02 287.3,-640.91 641.32,-641.32 z"
   id="path17"
   style="fill:#c3c7d1;fill-opacity:1;stroke:#c3c7d1;stroke-opacity:1" />
   <path
   class="fil3 str3"
   d="m 38519.4,5342.55 c -736.65,0 -1314.3,258.81 -1318.43,589.77 -0.07,1.18 -0.1,2.37 -0.1,3.56 v 658.98 0.28 0.13 658.85 0.28 0.13 659.14 c 0,332.67 579.23,593.33 1318.53,593.33 739.3,0 1318.52,-260.67 1318.52,-593.33 v -1977.8 c 0,-1.19 -0.03,-2.38 -0.09,-3.56 -4.13,-330.95 -581.79,-589.77 -1318.43,-589.77 z m 0,1054.82 c -699.35,0 -1186.67,-243.26 -1186.67,-461.49 0,-218.21 487.33,-461.48 1186.67,-461.48 699.35,0 1186.67,243.27 1186.67,461.48 0,218.22 -487.33,461.49 -1186.67,461.49 z"
   id="path19" />
  </g><g
   id="disk-quota-critical">
   <path
   class="fil0 str0"
   d="m 42322.07,3827.35 h 2911.8 l 580.74,-690.82 c 17.07,-20.24 42.23,-31.88 68.72,-31.77 h 2349.53 c 354.02,0.41 640.91,287.3 641.32,641.32 v 1653.67 c -57.31,-12.2 -117.03,-22.59 -178.8,-31.04 V 3746.09 c -0.41,-255.28 -207.24,-462.11 -462.52,-462.52 h -2305.94 l -580.73,690.82 c -17.07,20.24 -42.22,31.88 -68.71,31.77 h -2955.39 c -255.27,0.41 -462.11,207.25 -462.52,462.52 v 3506.57 c 0.41,255.27 207.24,462.11 462.52,462.52 h 5350.27 c 185.63,44.29 398.95,69.26 627.62,69.26 108.56,0 213.64,-5.67 313.98,-16.31 -106.54,78.93 -238.35,125.69 -381.08,125.86 H 42322.1 c -354.02,-0.41 -640.91,-287.3 -641.32,-641.32 V 4468.69 c 0.41,-354.02 287.3,-640.91 641.32,-641.32 z"
   id="path22"
   style="stroke:#c3c7d1;stroke-opacity:1;fill:#c3c7d1;fill-opacity:1" />
   <path
   class="fil3 str3"
   d="m 48299.95,5342.55 c -736.65,0 -1314.3,258.81 -1318.43,589.77 -0.07,1.18 -0.1,2.37 -0.1,3.56 v 658.98 0.28 0.13 658.85 0.28 0.13 659.14 c 0,332.67 579.23,593.33 1318.53,593.33 739.3,0 1318.52,-260.67 1318.52,-593.33 v -1977.8 c 0,-1.19 -0.03,-2.38 -0.09,-3.56 -4.13,-330.95 -581.79,-589.77 -1318.43,-589.77 z m 0,1054.82 c -699.35,0 -1186.67,-243.26 -1186.67,-461.49 0,-218.21 487.33,-461.48 1186.67,-461.48 699.35,0 1186.67,243.27 1186.67,461.48 0,218.22 -487.33,461.49 -1186.67,461.49 z"
   id="path24" />
   <path
   class="fil3"
   d="m 45347.35,7097.09 h -169.75 c -126.48,-817.95 -189.72,-1387.1 -189.72,-1705.8 V 4391.11 h 549.19 v 997.68 c 0,311.2 -63.24,880.36 -189.72,1708.3 z m -69.89,244.64 c 100.68,0 186.39,35.78 257.95,107.34 70.73,71.56 106.51,157.26 106.51,257.95 0,101.52 -35.78,188.06 -106.51,260.44 -71.56,72.39 -157.27,108.17 -257.95,108.17 -100.69,0 -186.39,-35.78 -257.95,-108.17 -70.73,-72.39 -106.51,-158.93 -106.51,-260.44 0,-100.69 35.78,-186.39 106.51,-257.95 71.56,-71.56 157.27,-107.34 257.95,-107.34 z"
   id="path26" />
  </g>
</svg>
