<?xml version="1.0" encoding="UTF-8" standalone="no"?>
<svg
   xmlns:dc="http://purl.org/dc/elements/1.1/"
   xmlns:cc="http://creativecommons.org/ns#"
   xmlns:rdf="http://www.w3.org/1999/02/22-rdf-syntax-ns#"
   xmlns:svg="http://www.w3.org/2000/svg"
   xmlns="http://www.w3.org/2000/svg"
   xmlns:sodipodi="http://sodipodi.sourceforge.net/DTD/sodipodi-0.dtd"
   xmlns:inkscape="http://www.inkscape.org/namespaces/inkscape"
   width="32"
   height="32"
   version="1.1"
   viewBox="0 0 32 32"
   id="svg99"
   sodipodi:docname="system.svg"
   inkscape:version="1.0.2 (e86c870879, 2021-01-15, custom)">
  <metadata
     id="metadata103">
    <rdf:RDF>
      <cc:Work
         rdf:about="">
        <dc:format>image/svg+xml</dc:format>
        <dc:type
           rdf:resource="http://purl.org/dc/dcmitype/StillImage" />
      </cc:Work>
    </rdf:RDF>
  </metadata>
  <sodipodi:namedview
     pagecolor="#ffffff"
     bordercolor="#666666"
     borderopacity="1"
     objecttolerance="10"
     gridtolerance="10"
     guidetolerance="10"
     inkscape:pageopacity="0"
     inkscape:pageshadow="2"
     inkscape:window-width="1440"
     inkscape:window-height="822"
     id="namedview101"
     showgrid="false"
     inkscape:zoom="3.4692426"
     inkscape:cx="-8.600995"
     inkscape:cy="8.1059012"
     inkscape:window-x="0"
     inkscape:window-y="0"
     inkscape:window-maximized="1"
     inkscape:current-layer="svg99"
     inkscape:document-rotation="0" />
  <defs
     id="defs7">
    <style
       id="current-color-scheme"
       type="text/css">.ColorScheme-Text { color:#333333; } .ColorScheme-Highlight { color:#5294e2; } .ColorScheme-ButtonBackground { color:#dedede; }</style>
    <style
       type="text/css"
       id="style3" />
    <style
       type="text/css"
       id="style5" />
    <linearGradient
       gradientUnits="userSpaceOnUse"
       gradientTransform="matrix(1.1807231,0,0,1.152802,-92.120519,-77.655116)"
       id="_lgradient_30"
       x1="84.740021"
       y1="81.676857"
       x2="98.057564"
       y2="81.676857">
      <stop
         offset="0%"
         stop-opacity="1"
         style="stop-color:rgb(88,0,226)"
         id="stop9" />
      <stop
         offset="100%"
         stop-opacity="1"
         style="stop-color:rgb(255,0,230)"
         id="stop11" />
    </linearGradient>
    <linearGradient
       id="_lgradient_31"
       x1="0"
       y1="0.5"
       x2="1"
       y2="0.5"
       gradientTransform="matrix(28,0,0,28.000594,1.7961501,2.1127368)"
       gradientUnits="userSpaceOnUse">
      <stop
         offset="0%"
         stop-opacity="1"
         style="stop-color:rgb(88,0,226)"
         id="stop16" />
      <stop
         offset="100%"
         stop-opacity="1"
         style="stop-color:rgb(255,0,230)"
         id="stop18" />
    </linearGradient>
    <linearGradient
       gradientUnits="userSpaceOnUse"
       gradientTransform="matrix(0.75841481,0,0,0.74170082,-38.124992,-52.447047)"
       id="_lgradient_47"
       x1="60.00079"
       y1="85.542641"
       x2="69.545692"
       y2="85.542641">
      <stop
         offset="0%"
         stop-opacity="1"
         style="stop-color:rgb(88,0,226)"
         id="stop27" />
      <stop
         offset="100%"
         stop-opacity="1"
         style="stop-color:rgb(255,0,230)"
         id="stop29" />
    </linearGradient>
    <linearGradient
       id="_lgradient_48"
       x1="0"
       y1="0.5"
       x2="1"
       y2="0.5"
       gradientTransform="matrix(11.999997,0,0,12.000364,5,4.9996388)"
       gradientUnits="userSpaceOnUse">
      <stop
         offset="0%"
         stop-opacity="1"
         style="stop-color:rgb(88,0,226)"
         id="stop34" />
      <stop
         offset="100%"
         stop-opacity="1"
         style="stop-color:rgb(255,0,230)"
         id="stop36" />
    </linearGradient>
    <linearGradient
       id="_lgradient_4"
       x1="0"
       y1="0.5"
       x2="1"
       y2="0.5"
       gradientTransform="matrix(28,0,0,28,1.989041,2.0344726)"
       gradientUnits="userSpaceOnUse">
      <stop
         offset="0%"
         stop-opacity="1"
         style="stop-color:rgb(67,233,123)"
         id="stop57" />
      <stop
         offset="97.82608695652173%"
         stop-opacity="1"
         style="stop-color:rgb(56,249,215)"
         id="stop59" />
    </linearGradient>
    <linearGradient
       id="_lgradient_5"
       x1="0"
       y1="0.5"
       x2="1"
       y2="0.5"
       gradientTransform="matrix(12,0,0,12.000001,5,5)"
       gradientUnits="userSpaceOnUse">
      <stop
         offset="0%"
         stop-opacity="1"
         style="stop-color:rgb(67,233,123)"
         id="stop68" />
      <stop
         offset="97.82608695652173%"
         stop-opacity="1"
         style="stop-color:rgb(56,249,215)"
         id="stop70" />
    </linearGradient>
    <linearGradient
       id="_lgradient_55"
       x1="0"
       y1="0.5"
       x2="1"
       y2="0.5"
       gradientTransform="matrix(18.261382,0,0,18.261384,6.8360137,6.8565346)"
       gradientUnits="userSpaceOnUse">
      <stop
         offset="0%"
         stop-opacity="1"
         style="stop-color:rgb(255,153,102)"
         id="stop107" />
      <stop
         offset="98.26086956521739%"
         stop-opacity="1"
         style="stop-color:rgb(255,94,98)"
         id="stop109" />
    </linearGradient>
    <linearGradient
       gradientTransform="matrix(1.0769229,0,0,1.0769232,-24.418443,-69.628697)"
       gradientUnits="userSpaceOnUse"
       id="_lgradient_56"
       x1="28.771999"
       y1="79.5"
       x2="46.228001"
       y2="79.5">
      <stop
         offset="0%"
         stop-opacity="1"
         style="stop-color:rgb(255,153,102)"
         id="stop112" />
      <stop
         offset="98.26086956521739%"
         stop-opacity="1"
         style="stop-color:rgb(255,94,98)"
         id="stop114" />
    </linearGradient>
    <linearGradient
       id="_lgradient_57"
       x1="0"
       y1="0.5"
       x2="1"
       y2="0.5"
       gradientTransform="matrix(27.999997,0,0,28,1.966163,1.9866881)"
       gradientUnits="userSpaceOnUse">
      <stop
         offset="0%"
         stop-opacity="1"
         style="stop-color:rgb(255,153,102)"
         id="stop119" />
      <stop
         offset="98.26086956521739%"
         stop-opacity="1"
         style="stop-color:rgb(255,94,98)"
         id="stop121" />
    </linearGradient>
    <linearGradient
       id="_lgradient_58"
       x1="0"
       y1="0.5"
       x2="1"
       y2="0.5"
       gradientTransform="matrix(8.0165662,0,0,7.8260003,6.9913628,7.0866665)"
       gradientUnits="userSpaceOnUse">
      <stop
         offset="0%"
         stop-opacity="1"
         style="stop-color:rgb(255,153,102)"
         id="stop130" />
      <stop
         offset="98.26086956521739%"
         stop-opacity="1"
         style="stop-color:rgb(255,94,98)"
         id="stop132" />
    </linearGradient>
    <linearGradient
       gradientTransform="matrix(0.68290027,0,0,0.66666669,3.1466343,-46)"
       gradientUnits="userSpaceOnUse"
       id="_lgradient_59"
       x1="5.3800001"
       y1="85.5"
       x2="17.620001"
       y2="85.5">
      <stop
         offset="0%"
         stop-opacity="1"
         style="stop-color:rgb(255,153,102)"
         id="stop135" />
      <stop
         offset="98.26086956521739%"
         stop-opacity="1"
         style="stop-color:rgb(255,94,98)"
         id="stop137" />
    </linearGradient>
    <linearGradient
       id="_lgradient_60"
       x1="0"
       y1="0.5"
       x2="1"
       y2="0.5"
       gradientTransform="matrix(12.292205,0,0,12,4.8538956,4.9999975)"
       gradientUnits="userSpaceOnUse">
      <stop
         offset="0%"
         stop-opacity="1"
         style="stop-color:rgb(255,153,102)"
         id="stop142" />
      <stop
         offset="98.26086956521739%"
         stop-opacity="1"
         style="stop-color:rgb(255,94,98)"
         id="stop144" />
    </linearGradient>
    <linearGradient
       id="_lgradient_12"
       x1="0"
       y1="0.5"
       x2="1"
       y2="0.5"
       gradientTransform="matrix(28,0,0,28,1.8201499,1.7452183)"
       gradientUnits="userSpaceOnUse">
      <stop
         offset="0%"
         stop-opacity="1"
         style="stop-color:rgb(255,224,49)"
         id="stop125" />
      <stop
         offset="100%"
         stop-opacity="1"
         style="stop-color:rgb(250,0,117)"
         id="stop127" />
    </linearGradient>
    <linearGradient
       id="_lgradient_13"
       x1="0"
       y1="0.5"
       x2="1"
       y2="0.5"
       gradientTransform="matrix(12,0,0,12,4.9999985,5)"
       gradientUnits="userSpaceOnUse">
      <stop
         offset="0%"
         stop-opacity="1"
         style="stop-color:rgb(255,224,49)"
         id="stop136" />
      <stop
         offset="100%"
         stop-opacity="1"
         style="stop-color:rgb(250,0,117)"
         id="stop138" />
    </linearGradient>
    <linearGradient
       id="_lgradient_14"
       x1="0"
       y1="0.5"
       x2="1"
       y2="0.5"
       gradientTransform="matrix(28.000003,0,0,28.000001,1.8087433,2.1151544)"
       gradientUnits="userSpaceOnUse">
      <stop
         offset="0%"
         stop-opacity="1"
         style="stop-color:rgb(0,255,169)"
         id="stop147" />
      <stop
         offset="100%"
         stop-opacity="1"
         style="stop-color:rgb(240,116,179)"
         id="stop149" />
    </linearGradient>
    <linearGradient
       id="_lgradient_15"
       x1="0"
       y1="0.5"
       x2="1"
       y2="0.5"
       gradientTransform="matrix(-21.951523,0,0,21.61011,21.87215,0.163323)"
       gradientUnits="userSpaceOnUse">
      <stop
         offset="0%"
         stop-opacity="1"
         style="stop-color:rgb(0,255,169)"
         id="stop158" />
      <stop
         offset="100%"
         stop-opacity="1"
         style="stop-color:rgb(240,116,179)"
         id="stop160" />
    </linearGradient>
  </defs>
  <g
     id="system-suspend"
     class="ColorScheme-Text"
     fill="currentColor">
    <rect
       x="-80"
       y="-1.8859e-7"
       width="32"
       height="32"
       rx="0"
       ry="0"
       opacity="0"
       id="rect50" />
    <path
       d="m-64 7c4.9706 0 9 4.0294 9 9s-4.0294 9-9 9-9-4.0294-9-9 4.0294-9 9-9zm0 1c-4.4183 0-8 3.5817-8 8 0.0032 0.33452 0.02729 0.6685 0.07227 1h15.857c0.04432-0.33154 0.0678-0.66552 0.07031-1 0-4.4183-3.5817-8-8-8zm-7.7402 10c0.91146 3.5301 4.0944 5.9974 7.7402 6 3.6437-0.0053 6.8235-2.472 7.7344-6z"
       id="path52" />
    <path
       d="m-64 1a15 15 0 0 0-15 15 15 15 0 0 0 15 15 15 15 0 0 0 15-15 15 15 0 0 0-15-15zm0 1a14 14 0 0 1 14 14 14 14 0 0 1-14 14 14 14 0 0 1-14-14 14 14 0 0 1 14-14z"
       id="path54" />
  </g>
  <g
     id="system-log-out"
     class="ColorScheme-Text"
     fill="currentColor">
    <circle
       cx="96"
       cy="16"
       r="16"
       opacity="0"
       id="circle57" />
    <path
       d="m90 7h10c1.0907 0 2 0.9093 2 2v2c0 0.27614-0.22386 0.5-0.5 0.5s-0.5-0.22386-0.5-0.5v-2c0-0.554-0.446-1-1-1h-10c-0.554 0-1 0.446-1 1v14c0 0.554 0.446 1 1 1h10c0.554 0 1-0.446 1-1v-3c0-0.27614 0.22386-0.5 0.5-0.5s0.5 0.22386 0.5 0.5v3c0 1.0907-0.9093 2-2 2h-10c-1.0907 0-2-0.9093-2-2v-14c0-1.0907 0.9093-2 2-2zm13.379 5.877c0.12781 0 0.25558 0.0505 0.35351 0.14844l2.1211 2.1211c0.047 0.04701 0.0841 0.10324 0.10937 0.16602 0.049 0.12034 0.049 0.25466 0 0.375-0.0253 0.06278-0.0624 0.119-0.10937 0.16602l-2.1211 2.1211c-0.19587 0.19587-0.51116 0.19587-0.70703 0-0.19587-0.19587-0.19587-0.51116 0-0.70703l1.2676-1.2676h-8.793c-0.277 0-0.5-0.223-0.5-0.5s0.223-0.5 0.5-0.5h8.793l-1.2676-1.2676c-0.19587-0.19587-0.19587-0.51116 0-0.70703 0.0979-0.09794 0.22571-0.14844 0.35352-0.14844z"
       id="path59" />
    <path
       d="m96 1a15 15 0 0 0-15 15 15 15 0 0 0 15 15 15 15 0 0 0 15-15 15 15 0 0 0-15-15zm0 1a14 14 0 0 1 14 14 14 14 0 0 1-14 14 14 14 0 0 1-14-14 14 14 0 0 1 14-14z"
       id="path61" />
  </g>
  <g
     id="system-reboot"
     class="ColorScheme-Text"
     fill="currentColor">
    <rect
       x="-40"
       width="32"
       height="32"
       rx="0"
       ry="0"
       opacity="0"
       id="rect64" />
    <path
       d="m-20.266 5.0625c0.2113 1.011e-4 0.39972 0.13301 0.4707 0.33203h0.0039l1.0371 3.8652-0.9668 0.25781-2.8379 0.76172c-0.05165 0.01712-0.10574 0.0257-0.16016 0.02539-0.27614 0-0.5-0.22386-0.5-0.5-1.28e-4 -0.21529 0.13757-0.40649 0.3418-0.47461v-0.00195l2.1973-0.58789c-1.0409-0.48193-2.1733-0.73438-3.3203-0.74024-4.4183 0-8 3.5817-8 8s3.5817 8 8 8 8-3.5817 8-8c-0.0023-0.9323-0.16755-1.857-0.48828-2.7324-0.02986-0.06561-0.04519-0.1369-0.04492-0.20898 0-0.27614 0.22386-0.5 0.5-0.5 0.23283 5.22e-4 0.43449 0.16168 0.48633 0.38867 0.35756 0.97827 0.5426 2.0112 0.54687 3.0527 0 4.9706-4.0294 9-9 9s-9-4.0294-9-9 4.0294-9 9-9c1.3276 0.00246 2.6382 0.2986 3.8379 0.86719l-0.57422-2.1426c-0.0082-0.022931-0.01474-0.046431-0.01953-0.070312-0.0061-0.030232-0.0093-0.060962-0.0098-0.091797 0-0.27614 0.22386-0.5 0.5-0.5z"
       id="path66" />
    <path
       d="m-24 1a15 15 0 0 0-15 15 15 15 0 0 0 15 15 15 15 0 0 0 15-15 15 15 0 0 0-15-15zm0 1a14 14 0 0 1 14 14 14 14 0 0 1-14 14 14 14 0 0 1-14-14 14 14 0 0 1 14-14z"
       id="path68" />
  </g>
  <g
     id="system-switch-user"
     class="ColorScheme-Text"
     fill="currentColor">
    <rect
       x="163"
       y="-1"
       width="32"
       height="32"
       rx="0"
       ry="0"
       opacity="0"
       id="rect71" />
    <path
       d="m182.55 7.0488c0.12828 0 0.25558 0.04855 0.35352 0.14648l4.9492 4.9512c0.047 0.04701 0.0841 0.10324 0.10937 0.16602 0.0245 0.06017 0.0371 0.12359 0.0371 0.1875 0 0.06645-0.0138 0.1296-0.0371 0.1875-0.0253 0.06278-0.0624 0.11901-0.10937 0.16602-0.047 0.04702-0.10322 0.08407-0.16602 0.10938-0.06017 0.02448-0.1236 0.037109-0.1875 0.037109h-17c-0.277 0-0.5-0.223-0.5-0.5s0.223-0.5 0.5-0.5h15.793l-4.0977-4.0957c-0.19587-0.19587-0.19587-0.51312 0-0.70898 0.0979-0.097934 0.22719-0.14648 0.35547-0.14648zm-12.051 9.9512h17c0.277 0 0.5 0.223 0.5 0.5s-0.223 0.5-0.5 0.5h-15.793l4.0977 4.0957c0.19587 0.19587 0.19587 0.51312 0 0.70898-0.19587 0.19587-0.51312 0.19587-0.70899 0l-4.9492-4.9512c-0.047-0.04701-0.0841-0.10324-0.10937-0.16602-0.0245-0.06017-0.03711-0.1236-0.03711-0.1875 0-0.06645 0.0138-0.1296 0.0371-0.1875 0.0253-0.06278 0.0624-0.11901 0.10937-0.16602 0.047-0.04702 0.10322-0.08408 0.16602-0.10938 0.06018-0.02448 0.12361-0.037109 0.18751-0.037109z"
       id="path73" />
    <path
       d="m179 0a15 15 0 0 0-15 15 15 15 0 0 0 15 15 15 15 0 0 0 15-15 15 15 0 0 0-15-15zm0 1a14 14 0 0 1 14 14 14 14 0 0 1-14 14 14 14 0 0 1-14-14 14 14 0 0 1 14-14z"
       id="path75" />
  </g>
  <g
     id="system-shutdown"
     class="ColorScheme-Text"
     fill="currentColor">
    <rect
       x="7.4506e-7"
       y="-4.3213e-7"
       width="32"
       height="32"
       rx="0"
       ry="0"
       opacity="0"
       id="rect78" />
    <path
       d="m16 5c0.554 0 1 0.446 1 1v8c0 0.554-0.446 1-1 1s-1-0.446-1-1v-8c0-0.554 0.446-1 1-1zm-5.2363 3.7832c2e-3 -1.14e-5 0.0039-1.14e-5 0.0059 0 0.01171-4.121e-4 0.02344-4.121e-4 0.03516 0 0.27614 0 0.5 0.22386 0.5 0.5-4.89e-4 0.17814-0.09572 0.34257-0.25 0.43164-1.9279 1.5161-3.0537 3.8326-3.0547 6.2852 0 4.4183 3.5817 8 8 8s8-3.5817 8-8c-0.0032-2.4674-1.1448-4.7954-3.0938-6.3086l2e-3 -0.00195c-0.12908-0.094256-0.2053-0.24451-0.20512-0.4043 0-0.27614 0.22386-0.5 0.5-0.5 0.11629 2.202e-4 0.22887 0.040969 0.31836 0.11523l2e-3 -0.00195c2.1923 1.7041 3.4752 4.3248 3.4765 7.1016 0 4.9706-4.0294 9-9 9s-9-4.0294-9-9c0.00467-2.7624 1.2777-5.3697 3.4531-7.0723 0.08327-0.083238 0.19324-0.13442 0.31055-0.14453z"
       id="path80" />
    <path
       d="m16 1a15 15 0 0 0-15 15 15 15 0 0 0 15 15 15 15 0 0 0 15-15 15 15 0 0 0-15-15zm0 1a14 14 0 0 1 14 14 14 14 0 0 1-14 14 14 14 0 0 1-14-14 14 14 0 0 1 14-14z"
       id="path82" />
  </g>
  <g
     id="system-suspend-hibernate"
     class="ColorScheme-Text"
     fill="currentColor">
    <rect
       x="42"
       width="32"
       height="32"
       rx="0"
       ry="0"
       opacity="0"
       id="rect85" />
    <path
       d="m56.369 7.1738c0.86477-0.0016321 1.3239 1.0208 0.74805 1.666-2.0169 2.2543-2.3583 5.5386-0.84961 8.1602 1.5139 2.6174 4.5262 3.964 7.4863 3.3477 0.94428-0.1975 1.5932 0.92451 0.95117 1.6445-0.6339 0.71356-1.3762 1.3208-2.2012 1.8008-0.0013 6.54e-4 -0.0026 0.0013-0.0039 2e-3 -4.2944 2.4793-9.8156 0.99941-12.295-3.295s-0.99945-9.8156 3.2949-12.295h2e-3c0.83028-0.47674 1.7301-0.8189 2.668-1.0117 0.06559-0.013157 0.13233-0.0197 0.19922-0.019531zm0.0039 1c-0.83377 0.17133-1.6349 0.47462-2.373 0.89844-3.8259 2.2093-5.1366 7.1016-2.9277 10.928 2.2093 3.8259 7.1016 5.1366 10.928 2.9277 0.73313-0.42672 1.3937-0.96733 1.957-1.6016-3.3783 0.70306-6.8267-0.83928-8.5547-3.8262-1.7231-2.9924-1.3317-6.7527 0.9707-9.3262zm4.127 0.82617h5c0.06645 0 0.1296 0.013774 0.1875 0.037109 0.06278 0.0253 0.119 0.062363 0.16602 0.10938 0.04701 0.047012 0.08407 0.10324 0.10938 0.16602 0.04897 0.12034 0.04897 0.25466 0 0.375-0.0253 0.062778-0.06236 0.119-0.10938 0.16602l-4.1465 4.1465h3.793c0.277 0 0.5 0.223 0.5 0.5s-0.223 0.5-0.5 0.5h-5c-0.06616 0-0.13135-0.01282-0.19336-0.03906h-2e-3c-0.05986-0.02524-0.11302-0.06224-0.1582-0.10742-0.04684-0.04685-0.08298-0.10096-0.10742-0.1582v-2e-3c-0.05248-0.12403-0.05248-0.26269 0-0.38672 0.02524-0.05986 0.06224-0.11497 0.10742-0.16016l4.1465-4.1464h-3.793c-0.277 0-0.5-0.223-0.5-0.5s0.223-0.5 0.5-0.5z"
       id="path87" />
    <path
       d="m58.076 1a15 15 0 0 0-0.42969 0.0039062 15 15 0 0 0-7.1465 2.0059 15 15 0 0 0-5.4902 20.49 15 15 0 0 0 20.49 5.4902 15 15 0 0 0 5.4902-20.49 15 15 0 0 0-12.914-7.5zm-0.076172 1a14 14 0 0 1 14 14 14 14 0 0 1-14 14 14 14 0 0 1-14-14 14 14 0 0 1 14-14z"
       id="path89" />
  </g>
  <g
     id="system-lock-screen"
     class="ColorScheme-Text"
     fill="currentColor">
    <rect
       x="122"
       y="-1"
       width="32"
       height="32"
       rx="0"
       ry="0"
       opacity="0"
       id="rect92" />
    <path
       d="m138 5c2.77 0 5 2.23 5 5v3h1.7773c1.2311 0 2.2227 0.99154 2.2227 2.2227v5.5547c0 1.2311-0.99155 2.2227-2.2227 2.2227h-13.555c-1.2311 0-2.2227-0.99154-2.2227-2.2227v-5.5547c0-1.2311 0.99155-2.2227 2.2227-2.2227h1.7773v-3c0-2.77 2.23-5 5-5zm0 1c-2.216 0-4 1.9831-4 4.4453v2.5547h8v-2.5547c0-2.4622-1.784-4.4453-4-4.4453zm-7 8c-0.554 0-1 0.446-1 1v6c0 0.554 0.446 1 1 1h14c0.554 0 1-0.446 1-1v-6c0-0.554-0.446-1-1-1h-12z"
       id="path94" />
    <path
       d="m138 0a15 15 0 0 0-15 15 15 15 0 0 0 15 15 15 15 0 0 0 15-15 15 15 0 0 0-15-15zm0 1a14 14 0 0 1 14 14 14 14 0 0 1-14 14 14 14 0 0 1-14-14 14 14 0 0 1 14-14z"
       id="path96" />
  </g>
  <g
     style="clip-rule:evenodd;fill-rule:evenodd;stroke-linejoin:round;stroke-miterlimit:1.41421"
     id="22-22-system-suspend-hibernate-6"
     transform="matrix(0.97622844,0,0,1,-110,42.040024)"
     inkscape:label="22-22-system-suspend-hibernate">
    <rect
       ry="0.70447761"
       y="0"
       x="0"
       height="22"
       width="22.535709"
       id="rect817-76"
       style="fill:#98ffff;fill-opacity:0;stroke-width:0.76501;stroke-miterlimit:1.41421;stroke-dasharray:none" />
    <path
       d="m 10.610891,7.452669 c -1.7338842,0.3 -3.0430039,1.7753329 -3.0430039,3.547333 0,1.993333 1.6580816,3.612001 3.6999539,3.612001 1.8131,0 3.323675,-1.276001 3.633029,-2.966001 l 6.58e-4,-0.0046 c -0.503298,0.356668 -1.119274,0.562667 -1.783735,0.562667 -1.701788,0 -3.083295,-1.348666 -3.083295,-3.0100001 0,-0.6486665 0.211016,-1.2499999 0.576368,-1.7413329 z m 4.468899,3.656667 0.185066,-0.219334 0.01161,0.11 -0.03824,0.37 -6.58e-4,0.006 c -0.176189,1.985333 -1.888903,3.537332 -3.9697,3.537332 -2.212597,0 -4.0086248,-1.753333 -4.0086248,-3.913333 0,-2.0333332 1.5925237,-3.7066666 3.6296148,-3.8760001 l 0.37901,-0.037335 0.112678,0.011335 -0.224674,0.180667 -0.11063,0.131333 -0.0055,0.00533 c -0.43772,0.472006 -0.697222,1.096006 -0.697222,1.778673 0,1.4953331 1.243561,2.7093331 2.775307,2.7093331 0.702021,0 1.343948,-0.255333 1.827441,-0.686 z"
       stroke-miterlimit="1.41420996"
       id="path140"
       inkscape:connector-curvature="0"
       style="isolation:isolate;vector-effect:non-scaling-stroke;fill:#333333;fill-opacity:1;fill-rule:evenodd;stroke:#333333;stroke-width:0.337368;stroke-linecap:butt;stroke-linejoin:round;stroke-miterlimit:1.41421;stroke-opacity:1" />
    <path
       d="m 15.933427,7.9553334 v 0 C 15.850797,7.8359999 15.883577,7.674 16.005817,7.5933335 v 0 c 0.122239,-0.080667 0.288867,-0.049335 0.371497,0.07 v 0 C 17.053385,8.6519999 17.413957,9.8133334 17.413957,11 c 0,1.591333 -0.646707,3.117334 -1.800808,4.242 C 14.461097,16.368667 12.897938,17 11.267855,17 9.6377716,17 8.074613,16.368667 6.9225604,15.242 5.7684586,14.117334 5.1217525,12.591333 5.1217525,11 v 0 c 0,-1.5913331 0.6467061,-3.1173331 1.8008079,-4.242 C 8.074613,5.634 9.6377716,5 11.267855,5 c 0.913721,0 1.819929,0.198 2.645555,0.5846665 v 0 C 14.045893,5.646 14.102574,5.802 14.039065,5.9313335 v 0 C 13.975555,6.0606665 13.816437,6.116 13.683271,6.054 v 0 C 12.930032,5.7046665 12.104406,5.522 11.267853,5.522 9.77913,5.522 8.3525515,6.098 7.2995194,7.1259999 6.2464872,8.1539999 5.6564613,9.5466669 5.6564613,11 v 0 c 0,1.453333 0.5900259,2.846 1.6430581,3.874 1.0530321,1.028 2.4796106,1.604 3.9683336,1.604 1.488722,0 2.915302,-0.576 3.968333,-1.604 1.053032,-1.028 1.643058,-2.420667 1.643058,-3.874 0,-1.0853331 -0.328475,-2.1446666 -0.945817,-3.0446666 z"
       id="path147"
       inkscape:connector-curvature="0"
       style="isolation:isolate;fill:#333333;fill-opacity:1;stroke-width:0.674734" />
  </g>
  <g
     style="clip-rule:evenodd;fill-rule:evenodd;stroke-linejoin:round;stroke-miterlimit:1.41421"
     id="22-22-system-reboot-3"
     transform="translate(-88,42.040024)"
     inkscape:label="22-22-system-reboot">
    <rect
       y="0"
       x="0"
       height="22"
       width="22"
       id="rect817-7"
       style="fill:#ffebff;fill-opacity:0;stroke-width:0.782849" />
    <path
       d="m 8.1305,10.999625 c 0,-1.5397968 1.2854977,-2.7893345 2.869497,-2.7893345 1.584,0 2.869503,1.2495377 2.869503,2.7893345 0,1.539796 -1.285503,2.790084 -2.869503,2.790084 -1.5839993,0 -2.869497,-1.250288 -2.869497,-2.790084 z"
       stroke-miterlimit="3"
       id="path32"
       inkscape:connector-curvature="0"
       style="isolation:isolate;vector-effect:non-scaling-stroke;fill:none;fill-opacity:1;stroke:#333333;stroke-width:1.50002;stroke-linecap:square;stroke-linejoin:miter;stroke-miterlimit:3;stroke-opacity:1" />
    <path
       d="m 8.410999,6.4719321 v 0 C 9.2060025,6.0571692 10.0955,5.8404128 11,5.8404128 c 0.962252,0 1.909501,0.2460078 2.744251,0.7155217 v 0 c 0.12375,0.069752 0.282752,0.028503 0.354752,-0.093003 v 0 c 0.072,-0.1207538 0.02998,-0.2760085 -0.09375,-0.3457606 v 0 C 13.092499,5.6019056 12.053753,5.3333976 11,5.3333976 c -1.0320017,0 -2.0459976,0.2587579 -2.9452492,0.7507724 L 8.1837489,5.344648 v 0 C 8.2114799,5.1841427 8.0997509,5.0311381 7.933999,5.0041373 v 0 C 7.7682528,4.9771365 7.611501,5.0851397 7.5837529,5.2463948 v 0 L 7.402251,6.2986769 c -0.05625,0.3262598 0.1635019,0.6345192 0.4897518,0.6877704 l 1.0994959,0.1807559 v 0 c 0.1657518,0.027001 0.3225036,-0.081752 0.3509999,-0.2430074 v 0 C 9.3702296,6.7636906 9.2585006,6.6106865 9.0927486,6.5836857 v 0 z M 6.2675034,13.849905 v 0 c 0.072,0.120754 0.029981,0.276009 -0.093752,0.346512 v 0 c -0.1237499,0.0705 -0.2834999,0.03 -0.3570017,-0.09 v 0 C 5.2820037,13.213136 5,12.199106 5,11.166325 5,10.238546 5.22725,9.3250185 5.6622536,8.4984937 v 0 C 5.7289998,8.3739895 5.8864998,8.3252384 6.0147497,8.38974 v 0 c 0.1282499,0.063752 0.1785037,0.2175068 0.1125,0.3420104 v 0 c -0.3997461,0.753023 -0.6052498,1.5877986 -0.6052498,2.4345746 0,0.943528 0.2557518,1.869806 0.7455035,2.68358 z m 7.4924976,1.917809 v 0 c 0.12375,-0.0705 0.2835,-0.02925 0.356248,0.09075 v 0 c 0.07275,0.120754 0.03077,0.276758 -0.093,0.348011 v 0 C 13.105251,16.72624 12.062,16.999999 11,16.999999 c -1.0252515,0 -2.0377511,-0.255758 -2.9324971,-0.743273 v 0 c -0.1252518,-0.06825 -0.1695037,-0.222757 -0.099,-0.34501 v 0 c 0.070498,-0.121504 0.2295,-0.165755 0.3547462,-0.09825 v 0 C 9.1399988,16.25973 10.063252,16.492986 11,16.492986 c 0.970504,0 1.922253,-0.249007 2.760001,-0.725272 z M 15.938,8.8615045 v 0 C 15.8765,8.7355007 15.9312,8.5839963 16.061002,8.5239943 v 0 c 0.129746,-0.060002 0.28575,-0.00675 0.349498,0.1192536 v 0 C 16.799002,9.4292715 17,10.291798 17,11.166325 c 0,0.99453 -0.261,1.971059 -0.758998,2.841085 v 0 c -0.0705,0.121505 -0.2295,0.165755 -0.354752,0.0975 v 0 c -0.125251,-0.0675 -0.171,-0.222756 -0.101998,-0.34651 v 0 c 0.45675,-0.791274 0.693748,-1.683802 0.693748,-2.592079 0,-0.798774 -0.18225,-1.584798 -0.54,-2.3048195 z M 15.043249,7.4889629 c 0,-0.140254 0.117,-0.2535079 0.261,-0.2535079 0.144,0 0.261,0.1132539 0.261,0.2535079 0,0.1402541 -0.117,0.2535079 -0.261,0.2535079 -0.144,0 -0.261,-0.1132538 -0.261,-0.2535079 z m -0.261,7.6089801 c 0,-0.140254 0.117,-0.253507 0.261,-0.253507 0.144,0 0.261,0.113253 0.261,0.253507 0,0.140255 -0.117,0.253509 -0.261,0.253509 -0.144,0 -0.261,-0.113254 -0.261,-0.253509 z m -8.3474976,0 c 0,-0.140254 0.117,-0.253507 0.261,-0.253507 0.1439999,0 0.2609999,0.113253 0.2609999,0.253507 0,0.140255 -0.117,0.253509 -0.2609999,0.253509 -0.144,0 -0.261,-0.113254 -0.261,-0.253509 z"
       id="path39"
       inkscape:connector-curvature="0"
       style="isolation:isolate;fill:#333333;fill-opacity:1;fill-rule:evenodd;stroke-width:0.750009" />
  </g>
  <g
     style="clip-rule:evenodd;fill-rule:evenodd;stroke-linejoin:round;stroke-miterlimit:1.41421"
     id="22-22-system-shutdown-2"
     transform="translate(-44,42.040024)"
     inkscape:label="22-22-system-shutdown">
    <rect
       ry="0.90769231"
       y="0"
       x="0"
       height="22"
       width="22"
       id="rect823"
       style="fill:#5c74ff;fill-opacity:0;stroke-width:0.895715;stroke-miterlimit:1.41421;stroke-dasharray:none" />
    <path
       d="m 15.554665,7.9553334 v 0 c -0.08067,-0.1193335 -0.04866,-0.2813335 0.07067,-0.362 v 0 c 0.119332,-0.080666 0.282,-0.049335 0.362666,0.07 v 0 c 0.66,0.9886664 1.012,2.1499999 1.012,3.3366666 0,1.591333 -0.631333,3.117334 -1.758,4.242 C 14.117335,16.368667 12.591335,17 11.000001,17 9.4086683,17 7.8826684,16.368667 6.7580019,15.242 5.631332,14.117334 4.9999985,12.591333 4.9999985,11 v 0 c 0,-1.591333 0.6313335,-3.1173331 1.7580004,-4.242 C 7.8826654,5.634 9.4086653,5 10.999998,5 c 0.892001,0 1.776667,0.198 2.582667,0.5846665 v 0 c 0.129334,0.061333 0.184667,0.2173335 0.122667,0.346667 v 0 C 13.643332,6.0606665 13.487999,6.116 13.357999,6.054 v 0 C 12.622665,5.7046665 11.816665,5.522 10.999998,5.522 9.5466653,5.522 8.1539989,6.098 7.1259989,7.1259999 6.0979985,8.1539999 5.5219985,9.5466669 5.5219985,11 v 0 c 0,1.453333 0.576,2.846001 1.6040004,3.874 1.028,1.028 2.4206664,1.604 3.8739991,1.604 1.453334,0 2.846001,-0.576 3.874,-1.604 1.028,-1.027999 1.604,-2.420667 1.604,-3.874 0,-1.0853331 -0.320666,-2.1446666 -0.923333,-3.0446666 z M 11.053999,7.194 v 0 c 0.150666,0 0.272666,0.122 0.272666,0.272667 v 3.787334 c 0,0.149999 -0.122,0.272666 -0.272666,0.272666 v 0 c -0.150667,0 -0.272667,-0.122667 -0.272667,-0.272666 V 7.466667 c 0,-0.150667 0.122,-0.272667 0.272667,-0.272667 z m 1.173333,1.7919999 v 0 c -0.134,-0.068 -0.188,-0.231333 -0.12,-0.365333 v 0 c 0.068,-0.134 0.231333,-0.188 0.365333,-0.12 v 0 c 0.54,0.2726665 0.995334,0.69 1.312,1.205333 0.318667,0.5153331 0.488,1.1073331 0.488,1.7126671 0,0.15 -0.01066,0.297333 -0.03,0.444667 -0.106,0.782667 -0.493333,1.502666 -1.088,2.023333 -0.597333,0.521333 -1.361334,0.807333 -2.152,0.81 -0.147334,0 -0.297334,-0.01066 -0.442,-0.03 -0.7853332,-0.106 -1.5053332,-0.493333 -2.0259996,-1.088 -0.5213335,-0.597334 -0.8073335,-1.360667 -0.8073335,-2.152 0,-0.15 0.008,-0.297334 0.03,-0.444666 0.152667,-1.1373341 0.894667,-2.1106676 1.9473334,-2.5660011 v 0 c 0.138667,-0.058667 0.2993337,0.00534 0.3586667,0.1433335 v 0 c 0.05933,0.1373335 -0.0034,0.298 -0.1406667,0.3586666 v 0 c -0.8779999,0.3786669 -1.4973334,1.191333 -1.6253334,2.138 -0.016665,0.122667 -0.024665,0.245333 -0.024665,0.370667 0,0.657334 0.24,1.295333 0.674,1.792 0.4333334,0.496 1.0333334,0.818 1.6853331,0.905333 0.122667,0.01666 0.248,0.02733 0.370667,0.02733 0.66,-0.0026 1.295334,-0.24 1.791999,-0.676667 0.496001,-0.433334 0.818,-1.033334 0.908,-1.685334 0.01667,-0.122666 0.02466,-0.245333 0.02466,-0.370666 0,-1.025333 -0.584,-1.9693336 -1.5,-2.4326671 z"
       id="path141"
       inkscape:connector-curvature="0"
       style="isolation:isolate;fill:#333333;fill-rule:evenodd;stroke-width:0.666668" />
  </g>
  <g
     style="clip-rule:evenodd;fill-rule:evenodd;stroke-linejoin:round;stroke-miterlimit:1.41421"
     id="22-22-system-suspend-2"
     transform="translate(-22,42.040024)"
     inkscape:label="22-22-system-suspend">
    <rect
       ry="1.0042553"
       y="0"
       x="0"
       height="22"
       width="22"
       id="rect821"
       style="fill:#ffff92;fill-opacity:0;stroke-width:1.00001;stroke-miterlimit:1.41421;stroke-dasharray:none" />
    <path
       d="m 15.555059,7.9555311 v 0 C 15.473879,7.8362334 15.505649,7.673884 15.624939,7.592704 v 0 c 0.12,-0.080471 0.282353,-0.048706 0.362824,0.070592 v 0 C 16.647764,8.6522353 17,9.8127059 17,11 17,12.591059 16.368941,14.117176 15.241647,15.241647 14.117176,16.368942 12.591058,17 11,17 9.4089409,17 7.8828232,16.368942 6.7583526,15.241647 5.6310588,14.117176 5,12.591059 5,11 v 0 C 5,9.408941 5.6310588,7.8828216 6.7583526,6.7583511 7.8828232,5.6338806 9.4089409,5 11,5 c 0.892235,0 1.776706,0.1983547 2.582823,0.5844706 v 0 c 0.129177,0.062116 0.184236,0.2174135 0.122118,0.34659 v 0 C 13.643529,6.0609412 13.48753,6.116 13.358353,6.0538841 v 0 C 12.622823,5.7044723 11.816706,5.5216452 11,5.5216452 c -1.4527058,0 -2.846118,0.5767095 -3.8738825,1.6044724 C 6.0983531,8.1538805 5.5216468,9.5472943 5.5216468,11 v 0 c 0,1.452706 0.5767063,2.846117 1.6044707,3.873882 C 8.153882,15.901647 9.5472942,16.478353 11,16.478353 c 1.452706,0 2.846117,-0.576706 3.873882,-1.604471 1.027765,-1.027765 1.60447,-2.421176 1.60447,-3.873882 0,-1.0849408 -0.321175,-2.1444705 -0.923293,-3.0444689 z m -3.750353,5.9350569 v 0 c 0.144,-0.04023 0.294353,0.04447 0.333882,0.189883 v 0 c 0.04023,0.145412 -0.04518,0.296471 -0.189177,0.336705 v 0 c -0.30847,0.08471 -0.627529,0.128471 -0.949411,0.128471 -0.940941,0 -1.8437648,-0.374118 -2.5065883,-1.039059 C 7.8284706,12.843765 7.4543528,11.940941 7.4543528,11 c 0,-0.703764 0.2103527,-1.3934116 0.6028237,-1.9799998 v 0 C 8.1418823,8.895059 8.3112941,8.8618824 8.4362352,8.9465883 v 0 c 0.1249412,0.084 0.1581173,0.2541176 0.074118,0.3790588 v 0 C 8.1771761,9.8218827 8,10.402824 8,11 8,11.796235 8.316235,12.56 8.8781172,13.121882 9.4399999,13.683764 10.203765,14 11,14 c 0.272471,0 0.542823,-0.0353 0.804706,-0.109412 z M 10.473411,8.0465899 v 0 c -0.14894,0.025412 -0.290823,-0.074118 -0.316234,-0.222353 v 0 c -0.02541,-0.1482353 0.07341,-0.2894135 0.22094,-0.3148252 v 0 c 0.204706,-0.036 0.414354,-0.055059 0.621883,-0.055059 0.940941,0 1.843765,0.3741194 2.506588,1.0390589 0.664941,0.6628235 1.039059,1.5656464 1.039059,2.5065884 0,0.714353 -0.215294,1.41247 -0.621882,2.004706 v 0 c -0.08471,0.123529 -0.253412,0.154588 -0.377648,0.06918 v 0 c -0.124234,-0.08471 -0.155294,-0.255529 -0.06988,-0.380471 v 0 C 13.817176,12.197176 14,11.605647 14,11 14,10.203765 13.683764,9.4400001 13.121882,8.878118 12.56,8.3162352 11.796235,8.0000017 11,8.0000017 c -0.177177,0 -0.35153,0.016253 -0.526589,0.046588 z m -0.048,1.5896456 v 0 c 0.151059,0 0.273177,0.1221173 0.273177,0.2731764 v 2.1811761 c 0,0.151059 -0.122118,0.273176 -0.273177,0.273176 v 0 c -0.150353,0 -0.272471,-0.122117 -0.272471,-0.273176 V 9.9094119 c 0,-0.1510591 0.122118,-0.2731764 0.272471,-0.2731764 z m 1.178118,0 v 0 c 0.151058,0 0.273176,0.1221173 0.273176,0.2731764 v 2.1811761 c 0,0.151059 -0.122118,0.273176 -0.273176,0.273176 v 0 c -0.150353,0 -0.272471,-0.122117 -0.272471,-0.273176 V 9.9094119 c 0,-0.1510591 0.122118,-0.2731764 0.272471,-0.2731764 z"
       id="path73-7"
       inkscape:connector-curvature="0"
       style="isolation:isolate;fill:#333333;fill-rule:evenodd;stroke-width:0.705884" />
  </g>
  <g
     style="clip-rule:evenodd;fill-rule:evenodd;stroke-linejoin:round;stroke-miterlimit:1.41421"
     id="22-22-system-switch-user-9"
     transform="translate(10e-7,42.040024)"
     inkscape:label="22-22-system-switch-user">
    <rect
       ry="0.91119689"
       y="0"
       x="0"
       height="22"
       width="22"
       id="rect818"
       style="opacity:1;fill:#ee4a50;fill-opacity:0;stroke-width:0.96276;stroke-miterlimit:1.41421;stroke-dasharray:none" />
    <g
       id="g1030"
       transform="translate(3,2.6666665)">
      <path
         inkscape:connector-curvature="0"
         id="path3"
         style="color:#c3c7d1;fill:#333333;fill-opacity:1;stroke:none;stroke-width:0.666667"
         d="M 6.0573333,4.8333333 4.6666667,3.4426667 V 2.5 L 7.3333333,5.1666667 4.6666667,7.8333333 V 6.8906667 L 6.0573333,5.5 H 2 V 4.8333333 Z"
         class="ColorScheme-Text" />
      <path
         inkscape:connector-curvature="0"
         style="color:#c3c7d1;fill:#333333;fill-opacity:1;stroke:none;stroke-width:0.666667"
         d="m 7.3333333,13.5 h 5.9999997 v -1.333333 c 0,-0.736 -0.597333,-1.333334 -1.333333,-1.333334 H 9.3333333 C 8.5973333,10.833333 8,11.430667 8,12.166667 V 13.5 H 7.3333333 v -1.333333 c 0,-1.104 0.896,-2 2,-2 H 12 c 1.104,0 2,0.896 2,2 v 2 H 7.3333333 Z m 3.4633337,-8 c 1.103333,0 2,0.896 2,2 0,1.104 -0.896667,2 -2,2 -1.1040003,0 -2.0000003,-0.896 -2.0000003,-2 0,-1.104 0.896,-2 2.0000003,-2 z m 0,0.6666667 C 11.532667,6.1666667 12.13,6.764 12.13,7.5 c 0,0.736 -0.597333,1.3333333 -1.333333,1.3333333 -0.736,0 -1.3333337,-0.5973333 -1.3333337,-1.3333333 0,-0.736 0.5973337,-1.3333333 1.3333337,-1.3333333 z"
         id="path2-09-8"
         class="ColorScheme-Text" />
    </g>
  </g>
  <g
     style="clip-rule:evenodd;fill-rule:evenodd;stroke-linejoin:round;stroke-miterlimit:1.41421"
     id="22-22-system-lock-screen-3"
     transform="translate(22,42.040024)"
     inkscape:label="22-22-system-lock-screen">
    <rect
       ry="1.1683168"
       y="0"
       x="0"
       height="22"
       width="22"
       id="rect817-27"
       style="fill:#ffff00;fill-opacity:0;stroke-width:1.15974;stroke-miterlimit:1.41421;stroke-dasharray:none" />
    <path
       inkscape:connector-curvature="0"
       id="path2-8-4"
       style="color:#c3c7d1;fill:#333333;fill-opacity:1;stroke-width:0.666667"
       d="m 6.3333335,11 h 9.3333335 v 6 H 6.3333335 Z m 8.6666675,5.333333 V 11.666667 H 7.0000002 v 4.666666 z M 9.6666668,11 H 9.0000002 V 8.3333333 c 0,-1.104 0.896,-2 1.9999998,-2 1.104,0 2.000001,0.896 2.000001,2 V 11 H 12.333334 V 8.3333333 C 12.333334,7.5973333 11.736,7 11,7 10.264,7 9.6666668,7.5973333 9.6666668,8.3333333 Z M 8.3333335,11 H 7.6666668 V 8.3333333 C 7.6666668,6.4933333 9.1600002,5 11,5 c 1.840001,0 3.333334,1.4933333 3.333334,3.3333333 V 11 H 13.666667 V 8.3333333 c 0,-1.472 -1.194666,-2.6666666 -2.666667,-2.6666666 -1.4719998,0 -2.6666665,1.1946666 -2.6666665,2.6666666 z"
       class="ColorScheme-Text" />
  </g>
  <g
     id="22-22-system-log-out"
     transform="translate(-65.999976,32)">
    <path
       id="path9"
       d="M 0,10 V 32 H 22 V 10 Z"
       fill="none" />
    <path
       id="path7"
       class="ColorScheme-Text"
       d="m 11,15 c -3.324015,0 -6,2.675985 -6,6 0,3.324015 2.675985,6 6,6 3.324015,0 6,-2.675985 6,-6 0,-3.324015 -2.675985,-6 -6,-6 z m 0,0.75 c 2.908519,0 5.25,2.341481 5.25,5.25 0,2.908519 -2.341481,5.25 -5.25,5.25 -2.9085188,0 -5.25,-2.341481 -5.25,-5.25 0,-2.908519 2.3414812,-5.25 5.25,-5.25 z M 11.969727,18 9.5,20.469727 8.9697266,21 9.5,21.530273 11.969727,24 12.5,23.469727 10.030273,21 12.5,18.530273 Z"
       fill="currentColor"
       style="stroke-width:0.75" />
  </g>
</svg>
