<?xml version="1.0" encoding="UTF-8"?>
<!DOCTYPE svg PUBLIC "-//W3C//DTD SVG 1.1//EN" "http://www.w3.org/Graphics/SVG/1.1/DTD/svg11.dtd">
<!-- Creator: CorelDRAW 2019 (64 Bit) -->
<svg xmlns="http://www.w3.org/2000/svg" xml:space="preserve" width="200mm" height="200mm" version="1.1" style="shape-rendering:geometricPrecision; text-rendering:geometricPrecision; image-rendering:optimizeQuality; fill-rule:evenodd; clip-rule:evenodd"
viewBox="0 0 4618.98 4618.98"
 xmlns:xlink="http://www.w3.org/1999/xlink">
 <defs>
  <style type="text/css">
   <![CDATA[
    .fil0 {fill:#003399}
   ]]>
  </style>
 </defs>
 <g id="Camada_x0020_1">
  <metadata id="CorelCorpID_0Corel-Layer"/>
  <path class="fil0" d="M1249.57 4618.98c-268.08,0 -486.29,-34.08 -654.62,-103 -169.22,-68.92 -302.82,-178.89 -401.68,-329.9 -71.25,-107.64 -121.13,-245.48 -150.52,-413.53 -28.5,-167.27 -42.75,-450.7 -42.75,-850.3l0 -1881.02 951.2 0 0 2190.01c0,330.67 24.04,535.89 72.14,614.88 47.21,78.22 131.82,117.71 253.83,117.71 104.34,0 180.85,-29.16 230.58,-87.01l0 -3876.83 1240.4 0 0 3676.76 1487.07 0c0,314.07 0,628.15 0,942.23l-2985.66 0zm2212.8 -4245.62l784.41 0c204.71,0 372.2,167.49 372.2,372.2l0 584.89c0,204.71 -167.49,372.2 -372.2,372.2l-1156.61 0 0 -957.09c0,-204.71 167.49,-372.2 372.2,-372.2z"/>
 </g>
</svg>
